<?xml version="1.0" standalone="no"?>
<!DOCTYPE svg PUBLIC "-//W3C//DTD SVG 20010904//EN"
 "http://www.w3.org/TR/2001/REC-SVG-20010904/DTD/svg10.dtd">
<svg version="1.0" xmlns="http://www.w3.org/2000/svg"
 width="500.000000pt" height="500.000000pt" viewBox="0 0 500.000000 500.000000"
 preserveAspectRatio="xMidYMid meet">
<metadata>
Created by potrace 1.14, written by Peter Selinger 2001-2017
</metadata>
<g transform="translate(0.000000,500.000000) scale(0.100000,-0.100000)"
fill="#000000" stroke="none">
<path d="M379 4985 c-131 -36 -269 -146 -321 -255 -62 -131 -58 35 -57 -2229
0 -1950 1 -2070 18 -2132 47 -173 191 -312 369 -355 47 -11 415 -13 2109 -14
1449 0 2068 3 2105 11 185 38 347 199 387 384 7 35 10 688 11 2110 0 1686 -3
2069 -14 2110 -50 187 -200 335 -381 374 -78 16 -4165 13 -4226 -4z"/>
</g>
</svg>
