<svg width="50" height="50" viewBox="0 0 50 50" fill="none" xmlns="http://www.w3.org/2000/svg">
<rect width="50" height="50" rx="5" fill="#2463EB"/>
<path d="M15.56 16.36H33.52V18.96H15.56V16.36ZM24.64 8.96C21.2 13.16 14.48 18 7.72 21C7.32 20.28 6.56 19.16 5.96 18.52C12.88 15.68 19.64 10.68 22.96 6.28H26C30.48 11.28 37.48 15.76 43.84 18.04C43.12 18.76 42.4 19.88 41.92 20.72C35.84 18.12 28.6 13.4 24.64 8.96ZM27.84 23.44H30.48V36.76H27.84V23.44ZM21.2 22.48H23.72V40.16C23.72 41.48 23.48 42.16 22.56 42.56C21.68 42.96 20.28 42.96 18.32 42.96C18.16 42.36 17.76 41.32 17.4 40.64C18.88 40.72 20.24 40.72 20.68 40.72C21.08 40.68 21.2 40.56 21.2 40.16V22.48ZM36 21.96H38.64V39.92C38.64 41.4 38.32 42.12 37.28 42.56C36.24 42.96 34.52 42.96 32.04 42.96C31.92 42.24 31.52 41.2 31.16 40.48C33.08 40.56 34.76 40.52 35.32 40.48C35.84 40.48 36 40.32 36 39.84V21.96ZM13.92 29.08L15 27.36C16.96 27.84 19.56 28.72 20.92 29.48L19.88 31.4C18.52 30.64 15.96 29.64 13.92 29.08ZM13.72 34.24L14.84 32.6C16.8 33.16 19.36 34.16 20.68 34.96L19.56 36.84C18.24 36 15.72 34.88 13.72 34.24ZM10.88 22.48H22.64V24.92H13.44V42.92H10.88V22.48Z" fill="white"/>
</svg>
